<?xml version="1.0" encoding="UTF-8"?>
<svg id="Layer_1" data-name="Layer 1" xmlns="http://www.w3.org/2000/svg" viewBox="0 0 447.58 148.21">
  <defs>
    
  </defs>
  <path class="cls-1" d="M363.5,130.94v5.03l77.74-21.81v-5.03l-77.74,21.81ZM0,26.12C24.05,16.61,30.2,4.87,33.55,14.93l2.8,9.51L63.75.95c4.47,19.01,5.59,34.11-6.15,38.59-7.27,3.35-13.98-7.27-13.98-16.78-3.91,21.25-15.66,26.84-27.4,19.02L0,26.12ZM216.06,86.68l5.59,9.51c15.66-41.94,17.34-69.35,20.13-87.8l-32.44,5.59,6.71,72.7ZM185.3,141.49c96.19,21.81,106.82-105.7,107.38-129.74l-5.59,65.99c-3.92,51.45,17.9,65.43,24.05,67.67,44.18,11.74,54.8-39.15,59.28-39.15,42.5-2.8,66.55-3.36,70.46-22.37l6.71-32.99-53.13,13.42c-8.39,1.68-17.34,55.92-66.55,52.57-45.86-2.8-32.44-76.62-30.2-116.88l-32.44,5.59,6.71,72.14c2.8,26.28-9.51,30.2-90.6,22.93l3.91,40.82ZM91.72.95l-4.47,1.68c-9.51,64.31,0,63.19-86.12,62.08l5.59,46.98c54.25,7.27,68.23-16.78,81.09-81.09-8.95,47.54-11.74,113.53,34.67,117.44,45.86,3.92,58.16-59.28,63.75-105.14l-76.06,8.39,2.8,34.11,49.77-4.47c22.37-2.8,10.07,39.71-39.15,36.35-44.74-3.36-34.67-74.38-31.88-116.32"></path>
</svg>